<?xml version="1.0" encoding="UTF-8" standalone="no"?>
<svg width="22px" height="22px" viewBox="0 0 22 22" version="1.1" xmlns="http://www.w3.org/2000/svg" xmlns:xlink="http://www.w3.org/1999/xlink">
    <!-- Generator: Sketch 43.2 (39069) - http://www.bohemiancoding.com/sketch -->
    <title>checkbox_selected</title>
    <desc>Created with Sketch.</desc>
    <defs></defs>
    <g id="SVG's-for-export" stroke="none" stroke-width="1" fill="none" fill-rule="evenodd">
        <g id="checkbox_selected" fill="#000000">
            <path d="M0,1.991155 C0,0.891470458 0.889673948,0 1.991155,0 L20.008845,0 C21.1085295,0 22,0.889673948 22,1.991155 L22,20.008845 C22,21.1085295 21.1103261,22 20.008845,22 L1.991155,22 C0.891470458,22 0,21.1103261 0,20.008845 L0,1.991155 Z M17.3618,6.3602 L17.3618,6.3602 C17.6474,5.9006 17.519,5.3036 17.0702,5.0018 C16.6382,4.7114 16.0064,4.8248 15.7016,5.2448 L9.5768,13.6892 L6.1544,10.6028 C5.78,10.265 5.165,10.2716 4.799,10.6166 C4.4222,10.9706 4.3796,11.5646 4.7012,11.969 L8.729,17.0312 C8.9798,17.3474 9.3458,17.5286 9.7322,17.5286 C10.169,17.5286 10.5728,17.2976 10.8134,16.9106 L17.3618,6.3602 Z" id="Combined-Shape"></path>
        </g>
    </g>
</svg>